<?xml version="1.0" encoding="utf-8"?>
<!-- Generator: Adobe Illustrator 26.3.1, SVG Export Plug-In . SVG Version: 6.00 Build 0)  -->
<svg version="1.1" id="Layer_1" xmlns="http://www.w3.org/2000/svg" xmlns:xlink="http://www.w3.org/1999/xlink" x="0px" y="0px"
	 viewBox="0 0 32 32" style="enable-background:new 0 0 32 32;" xml:space="preserve">
<style type="text/css">
	.st0{fill:#1B3281;}
	.st1{fill:#FFFFFF;}
</style>
<rect y="0" class="st0" width="32" height="32"/>
<path class="st1" d="M21.2,15.8c-0.1-0.1-0.1-0.2,0-0.2c1.4-0.8,2.1-2.1,2.1-3.9c0-2-0.6-3.4-1.8-4.3c-1.2-0.9-3-1.2-5.4-1.2H8.8
	c-0.2,0-0.2,0-0.3,0.1C8.4,6.3,8.4,6.4,8.4,6.5v18.9c0,0.2,0,0.2,0.1,0.3c0.1,0.1,0.2,0.1,0.3,0.1h7.6c2.2,0,3.9-0.5,5.2-1.4
	c1.3-0.9,2-2.3,2-4.3c0-1-0.2-2-0.6-2.7C22.7,16.8,22.1,16.2,21.2,15.8z M13.6,10.8c0-0.1,0.1-0.2,0.2-0.2h2.3c1.4,0,2,0.5,2,1.6
	s-0.7,1.6-2,1.6h-2.3c-0.1,0-0.2-0.1-0.2-0.2V10.8z M16.4,21.3h-2.6c-0.1,0-0.2-0.1-0.2-0.2v-3c0-0.1,0.1-0.2,0.2-0.2h2.6
	c1.3,0,2,0.5,2,1.6C18.4,20.8,17.7,21.3,16.4,21.3z"/>
</svg>
