<?xml version="1.0" encoding="utf-8"?>
<!-- Generator: Adobe Illustrator 26.3.1, SVG Export Plug-In . SVG Version: 6.00 Build 0)  -->
<svg version="1.1" id="Layer_1" xmlns="http://www.w3.org/2000/svg" xmlns:xlink="http://www.w3.org/1999/xlink" x="0px" y="0px"
	 viewBox="0 0 283.5 141.7" style="enable-background:new 0 0 283.5 141.7;" xml:space="preserve">
<style type="text/css">
	.st0{fill:#1B3281;}
	.st1{fill:#F15A22;}
</style>
<g>
	<g>
		<path class="st0" d="M33.2,70.5c-0.1-0.1-0.1-0.2,0-0.2c1.8-1,2.7-2.7,2.7-5c0-2.6-0.8-4.4-2.3-5.5c-1.6-1.1-3.9-1.6-6.9-1.6h-9.4
			c-0.2,0-0.3,0-0.4,0.1s-0.1,0.2-0.1,0.4v24.2c0,0.2,0,0.3,0.1,0.4s0.2,0.1,0.4,0.1H27c2.8,0,5-0.6,6.7-1.8c1.7-1.2,2.6-3,2.6-5.5
			c0-1.3-0.3-2.5-0.8-3.4C35.1,71.8,34.3,71.1,33.2,70.5z M23.5,64.1c0-0.1,0.1-0.2,0.2-0.2h3c1.8,0,2.6,0.7,2.6,2s-0.9,2-2.6,2h-3
			c-0.1,0-0.2-0.1-0.2-0.2V64.1z M27,77.6h-3.3c-0.1,0-0.2-0.1-0.2-0.2v-3.8c0-0.1,0.1-0.2,0.2-0.2H27c1.7,0,2.5,0.7,2.5,2
			C29.6,76.9,28.7,77.6,27,77.6z"/>
		<path class="st0" d="M53.1,58.6c-0.1-0.3-0.3-0.4-0.6-0.4h-7.6c-0.3,0-0.5,0.1-0.6,0.4l-7.6,24.2c-0.1,0.4,0,0.6,0.5,0.6h23.2
			c0.3,0,0.5-0.1,0.5-0.4c0-0.1,0-0.2,0-0.2L53.1,58.6z M52.3,78l-7.5,0.1c-0.1,0-0.2-0.1-0.1-0.2l3.9-11.5c0-0.1,0.1-0.1,0.1-0.1
			s0.1,0,0.1,0.1l3.7,11.4C52.5,78,52.5,78,52.3,78z"/>
		<path class="st0" d="M102.9,58.1H85.7c-0.2,0-0.3,0-0.4,0.1s-0.1,0.2-0.1,0.4v24.2c0,0.2,0,0.3,0.1,0.4s0.2,0.1,0.4,0.1h17.2
			c0.2,0,0.3,0,0.4-0.1s0.1-0.2,0.1-0.4v-4.7c0-0.2,0-0.3-0.1-0.4s-0.2-0.1-0.4-0.1H92.1c-0.1,0-0.2-0.1-0.2-0.2v-3.8
			c0-0.1,0.1-0.2,0.2-0.2h6.7c0.2,0,0.3,0,0.4-0.1s0.1-0.2,0.1-0.4v-4.7c0-0.2,0-0.3-0.1-0.4s-0.2-0.1-0.4-0.1h-6.7
			c-0.1,0-0.2-0.1-0.2-0.2v-3.4c0-0.1,0.1-0.2,0.2-0.2h10.8c0.2,0,0.3,0,0.4-0.1s0.1-0.2,0.1-0.4v-4.7c0-0.2,0-0.3-0.1-0.4
			C103.2,58.2,103.1,58.1,102.9,58.1z"/>
		<path class="st0" d="M78.2,73.2c0-0.1,0-0.2,0.1-0.3c1.4-0.6,2.4-1.4,3.2-2.6c0.8-1.2,1.2-2.6,1.2-4.2s-0.3-3-1-4.2
			s-1.6-2.2-2.9-2.8s-2.7-1-4.3-1h-11c-0.2,0-0.3,0-0.4,0.1S63,58.4,63,58.6v24.2c0,0.2,0,0.3,0.1,0.4s0.2,0.1,0.4,0.1h5.7
			c0.2,0,0.3,0,0.4-0.1s0.1-0.2,0.1-0.4v-6v-3v-5.5v-1.2v-3c0-0.1,0.1-0.2,0.2-0.2h3.4c0.8,0,1.4,0.2,1.9,0.6s0.7,1,0.7,1.7
			s-0.2,1.2-0.7,1.6s-1.1,0.6-1.9,0.6h-3.1l5.4,14.5c0.1,0.3,0.3,0.4,0.6,0.4h6.1c0.1,0,0.3,0,0.4-0.1s0.1-0.2,0.1-0.3
			c0,0,0-0.1-0.1-0.3L78.2,73.2z"/>
		<path class="st0" d="M128.5,58.3c-0.1-0.1-0.2-0.1-0.4-0.1h-5.6c-0.3,0-0.5,0.1-0.6,0.4l-4.5,7.3c-0.1,0.1-0.1,0.1-0.2,0l-4.5-7.3
			c-0.1-0.2-0.4-0.4-0.6-0.4h-5.6c-0.2,0-0.3,0-0.4,0.1s-0.1,0.2-0.1,0.4v24.2c0,0.2,0,0.3,0.1,0.4s0.2,0.1,0.4,0.1h5.7
			c0.2,0,0.3,0,0.4-0.1s0.1-0.2,0.1-0.4V69.7c0-0.1,0-0.1,0.1-0.2c0,0,0.1,0,0.1,0.1l4.5,7.4l4.1-6.7l0.4-0.6c0-0.1,0.1-0.1,0.1-0.1
			s0.1,0.1,0.1,0.2v13.1c0,0.2,0,0.3,0.1,0.4s0.2,0.1,0.4,0.1h5.7c0.2,0,0.3,0,0.4-0.1c0.1-0.1,0.1-0.2,0.1-0.4V58.7
			C128.7,58.5,128.6,58.4,128.5,58.3z"/>
	</g>
	<g>
		<path class="st1" d="M218.6,58.9c-1.3-0.7-2.7-1-4.4-1s-3.1,0.3-4.4,1c-1.3,0.7-2.2,1.6-2.9,2.9c-0.7,1.2-1,2.7-1,4.3v9.5
			c0,1.6,0.3,3,1,4.3s1.7,2.2,2.9,2.9c1.3,0.7,2.7,1,4.4,1s3.1-0.3,4.4-1c1.3-0.7,2.3-1.6,3-2.9c0.7-1.2,1-2.7,1-4.3v-9.5
			c0-1.6-0.3-3-1-4.3C220.8,60.5,219.8,59.6,218.6,58.9z M220.7,75.6c0,1.9-0.6,3.5-1.8,4.7s-2.8,1.8-4.7,1.8s-3.5-0.6-4.7-1.8
			c-1.2-1.2-1.8-2.7-1.8-4.7V66c0-1.9,0.6-3.5,1.8-4.7s2.7-1.8,4.7-1.8c1.9,0,3.5,0.6,4.7,1.8c1.2,1.2,1.8,2.7,1.8,4.7V75.6z"/>
		<path class="st1" d="M264.7,60c-1.3-1.2-3.2-1.8-5.5-1.8h-8.4c-0.2,0-0.4,0.1-0.4,0.4v24.5c0,0.2,0.1,0.4,0.4,0.4h8.4
			c2.3,0,4.1-0.6,5.5-1.8c1.3-1.2,2-2.9,2-5V64.9C266.7,62.8,266.1,61.2,264.7,60z M264.8,76.4c0,1.6-0.5,2.9-1.5,3.9
			s-2.3,1.4-4,1.4h-6.8c-0.1,0-0.1,0-0.1-0.1V60c0-0.1,0-0.1,0.1-0.1h6.8c1.7,0,3,0.5,4,1.4c1,1,1.5,2.2,1.5,3.9V76.4z"/>
		<path class="st1" d="M195.5,71.6c0-0.1,0-0.1,0.1-0.2c1.6-0.3,2.9-1,3.8-2.2c0.9-1.2,1.4-2.6,1.4-4.3c0-2-0.6-3.7-1.9-4.9
			c-1.2-1.2-2.9-1.9-4.9-1.9h-9.1c-0.2,0-0.4,0.1-0.4,0.4V83c0,0.2,0.1,0.4,0.4,0.4h1.2c0.2,0,0.4-0.1,0.4-0.4v-5.5v-5.8v-1.9v-4.3
			v-5.6c0-0.1,0-0.1,0.1-0.1h7.2c1.5,0,2.7,0.5,3.6,1.4c0.9,0.9,1.4,2.2,1.4,3.7s-0.5,2.7-1.4,3.6s-2.1,1.4-3.6,1.4h-1.1l0.8,1.7
			l2.3,4.7l0.1,0.2l3.2,6.6c0.1,0.2,0.2,0.3,0.4,0.3h1.2c0.2,0,0.3-0.1,0.3-0.3c0-0.1,0-0.1,0-0.2L195.5,71.6z"/>
		<path class="st1" d="M174.8,70.4C174.7,70.3,174.7,70.3,174.8,70.4C174.7,70.3,174.8,70.3,174.8,70.4c1.2-0.6,2.2-1.3,2.8-2.2
			s1-2.1,1-3.4c0-2-0.6-3.6-1.9-4.8c-1.3-1.2-3.1-1.7-5.3-1.7h-8.3c-0.2,0-0.4,0.1-0.4,0.4v24.5c0,0.2,0.1,0.4,0.4,0.4h8.5
			c2.2,0,4-0.6,5.3-1.8c1.3-1.2,2-2.9,2-5c0-1.5-0.4-2.7-1.1-3.8C177.1,71.7,176.1,70.9,174.8,70.4z M175.5,80.2
			c-1,0.9-2.3,1.4-3.9,1.4h-6.9c-0.1,0-0.1,0-0.1-0.1v-8.9v-1.3v-1.9V64v-4c0-0.1,0-0.1,0.1-0.1h6.6c1.6,0,2.9,0.5,3.9,1.4
			s1.5,2.1,1.5,3.6c0,1.4-0.5,2.6-1.5,3.5s-2.2,1.3-3.9,1.3h-0.7c-0.1,0-0.2,0.1-0.2,0.2v1.3c0,0.1,0.1,0.2,0.2,0.2h0.9
			c1.6,0,2.9,0.5,3.9,1.4c1,1,1.5,2.2,1.5,3.8C176.9,78,176.4,79.3,175.5,80.2z"/>
		<path class="st1" d="M148.8,58.4c-0.1-0.2-0.2-0.3-0.4-0.3h-1.6c-0.2,0-0.4,0.1-0.4,0.3l-8,24.6c-0.1,0.3,0,0.4,0.3,0.4h1.3
			c0.2,0,0.4-0.1,0.4-0.3l0.2-0.6l0,0l7-21.7l0.1-0.1c0,0,0.1,0,0.1,0.1l7.1,22.1l0.1,0.2c0.1,0.2,0.2,0.3,0.4,0.3h1.2
			c0.2,0,0.3-0.1,0.3-0.3V83L148.8,58.4z"/>
		<path class="st1" d="M237.3,58.4c-0.1-0.2-0.2-0.3-0.4-0.3h-1.6c-0.2,0-0.4,0.1-0.4,0.3l-8,24.6c-0.1,0.3,0,0.4,0.3,0.4h1.3
			c0.2,0,0.4-0.1,0.4-0.3l0.2-0.6l0,0l7-21.7l0.1-0.1c0,0,0.1,0,0.1,0.1l7.1,22.1l0.1,0.2c0.1,0.2,0.2,0.3,0.4,0.3h1.2
			c0.2,0,0.3-0.1,0.3-0.3V83L237.3,58.4z"/>
	</g>
</g>
</svg>
