<svg xmlns="http://www.w3.org/2000/svg" fill-rule="evenodd" clip-rule="evenodd" image-rendering="optimizeQuality" shape-rendering="geometricPrecision" text-rendering="geometricPrecision" version="1" viewBox="0 0 1479 986"><path fill="#01237c" fill-rule="nonzero" d="M1479 986H0V0h1479z"/><path fill="#fff" d="M1479 345H887V0H592v345H0v296h592v345h295V641h592z"/><path fill="#fff" d="M1479 873L170 0H0v114l1308 872h171z"/><path fill="#fff" d="M0 873L1309 0h170v114L171 986H0z"/><path fill="#cf132a" d="M1479 407H826V0H653v407H0v172h653v407h173V579h653z"/><path fill="#cf132a" d="M1479 983v-78l-398-264H964zm0-983h-117L887 316v29h73L1479 0zM515 641L0 983v3h113l479-318v-27zM0 1v78l401 266h117z"/></svg>